<svg width="36" height="36" viewBox="0 0 36 36" fill="none" xmlns="http://www.w3.org/2000/svg">
<circle cx="18" cy="18" r="18" fill="#2FC509"/>
<path d="M12.4375 15H10.2656V19.1875H10.2031L7.35938 15H5.51562V23H7.6875V18.7969H7.73438L10.625 23H12.4375V15ZM13.4648 23H19.2148V21.25H15.6367V19.875H18.9336V18.125H15.6367V16.75H19.2305V15H13.4648V23ZM22.3389 23H24.417L25.7764 18.5312H25.8389L27.1982 23H29.2764L31.6357 15H29.2139L28.1201 19.9375H28.0576L26.7607 15H24.8545L23.5576 19.9219H23.4951L22.4014 15H19.9795L22.3389 23Z" fill="white"/>
</svg>
