<svg width="66" height="13" viewBox="0 0 66 13" fill="none" xmlns="http://www.w3.org/2000/svg">
<path d="M6 0.5L7.91148 3.86908L11.7063 4.6459L9.09284 7.50492L9.52671 11.3541L6 9.752L2.47329 11.3541L2.90716 7.50492L0.293661 4.6459L4.08852 3.86908L6 0.5Z" fill="#F99808"/>
<path d="M20 0.5L21.9115 3.86908L25.7063 4.6459L23.0928 7.50492L23.5267 11.3541L20 9.752L16.4733 11.3541L16.9072 7.50492L14.2937 4.6459L18.0885 3.86908L20 0.5Z" fill="#F99808"/>
<path d="M33.5 0.5L35.2522 3.86908L38.7308 4.6459L36.3351 7.50492L36.7328 11.3541L33.5 9.752L30.2672 11.3541L30.6649 7.50492L28.2692 4.6459L31.7478 3.86908L33.5 0.5Z" fill="#F99808"/>
<path d="M46.5 0.5L48.2522 3.86908L51.7308 4.6459L49.3351 7.50492L49.7328 11.3541L46.5 9.752L43.2672 11.3541L43.6649 7.50492L41.2692 4.6459L44.7478 3.86908L46.5 0.5Z" fill="#F99808"/>
<path d="M60 0.5L61.9115 3.86908L65.7063 4.6459L63.0928 7.50492L63.5267 11.3541L60 9.752L56.4733 11.3541L56.9072 7.50492L54.2937 4.6459L58.0885 3.86908L60 0.5Z" fill="#F99808"/>
</svg>
